<?xml version="1.0" encoding="UTF-8"?>
<svg width="229px" height="43px" viewBox="0 0 229 43" version="1.1" xmlns="http://www.w3.org/2000/svg" xmlns:xlink="http://www.w3.org/1999/xlink">
    <!-- Generator: Sketch 49.3 (51167) - http://www.bohemiancoding.com/sketch -->
    <title>peacock-logo-footer</title>
    <desc>Created with Sketch.</desc>
    <defs>
        <polygon id="path-1" points="0.0244444444 0.119303793 32.9589132 0.119303793 32.9589132 35.8494194 0.0244444444 35.8494194"></polygon>
    </defs>
    <g id="Symbols" stroke="none" stroke-width="1" fill="none" fill-rule="evenodd">
        <g id="footer-769" transform="translate(-270.000000, -37.000000)">
            <g id="peacock-logo-footer" transform="translate(270.000000, 37.000000)">
                <path d="M99.9792107,25.4101485 C101.242456,25.5448205 102.396337,25.6454037 103.437555,25.7123189 C104.479185,25.7800758 105.430023,25.8133229 106.29172,25.8133229 C107.125355,25.8133229 108.096827,25.7800758 109.20779,25.7123189 C110.318752,25.6454037 111.583234,25.5448205 113,25.4101485 L113,28.660374 C111.818468,28.7740035 110.669538,28.8581735 109.551973,28.9145674 C108.433583,28.971803 107.346969,29 106.29172,29 C104.77756,29 103.249781,28.9398184 101.708383,28.8186136 C100.166572,28.6990922 98.5966985,28.5118139 97,28.2571995 L97,15.7428005 C98.5966985,15.5033367 100.159556,15.3185835 101.687336,15.1914868 C103.215115,15.0639692 104.729275,15 106.228991,15 C107.298685,15 108.385298,15.0286178 109.489657,15.0845909 C110.593191,15.1418265 111.735517,15.2268382 112.916637,15.339626 L112.916637,18.6331991 C110.013361,18.335658 107.783596,18.1870979 106.228991,18.1870979 C105.381326,18.1870979 104.444519,18.2182408 103.416095,18.2822101 C102.388909,18.3457584 101.242456,18.4492876 99.9792107,18.5902724 L99.9792107,25.4101485" id="Fill-1" fill="#FFFFFE"></path>
                <path d="M117.139151,25.4114111 C118.324105,25.5385078 119.403827,25.6374076 120.377011,25.7076895 C121.349326,25.7779715 122.224235,25.8133229 123,25.8133229 C123.77533,25.8133229 124.649804,25.7779715 125.623424,25.7076895 C126.596608,25.6374076 127.675895,25.5385078 128.861284,25.4114111 L128.861284,18.5890098 C127.675895,18.4484459 126.596608,18.3453376 125.623424,18.2822101 C124.649804,18.2182408 123.77533,18.1870979 123,18.1870979 C122.224235,18.1870979 121.349326,18.2182408 120.377011,18.2822101 C119.403827,18.3453376 118.324105,18.4484459 117.139151,18.5890098 L117.139151,25.4114111 Z M114,15.7853063 C115.609799,15.5176456 117.160893,15.3185835 118.654153,15.1914868 C120.146543,15.0639692 121.595014,15 123,15 C124.405421,15 125.853022,15.0639692 127.345412,15.1914868 C128.838672,15.3185835 130.390636,15.5176456 132,15.7853063 L132,28.2357362 C130.390636,28.5046594 128.838672,28.6990922 127.345412,28.8186136 C125.853022,28.9398184 124.405421,29 123,29 C121.595014,29 120.146543,28.9398184 118.654153,28.8186136 C117.160893,28.6990922 115.609799,28.5046594 114,28.2357362 L114,15.7853063 Z" id="Fill-2" fill="#FFFFFE"></path>
                <path d="M137.979029,25.4101485 C139.242784,25.5448205 140.395517,25.6454037 141.437228,25.7123189 C142.478938,25.7800758 143.430676,25.8133229 144.292027,25.8133229 C145.125313,25.8133229 146.097273,25.7800758 147.208734,25.7123189 C148.31937,25.6454037 149.583125,25.5448205 151,25.4101485 L151,28.660374 C149.819615,28.7740035 148.670183,28.8581735 147.551706,28.9145674 C146.433229,28.971803 145.347357,29 144.292027,29 C142.777336,29 141.249439,28.9398184 139.707922,28.8186136 C138.165992,28.6990922 136.596409,28.5118139 135,28.2571995 L135,15.7428005 C136.596409,15.5033367 138.158975,15.3185835 139.687286,15.1914868 C141.21477,15.0639692 142.728635,15 144.22888,15 C145.298656,15 146.384941,15.0286178 147.490211,15.0845909 C148.59383,15.1418265 149.735832,15.2268382 150.917456,15.339626 L150.917456,18.6331991 C148.013542,18.335658 145.78443,18.1870979 144.22888,18.1870979 C143.382387,18.1870979 142.443857,18.2182408 141.417004,18.2822101 C140.387675,18.3457584 139.242784,18.4492876 137.979029,18.5902724 L137.979029,25.4101485" id="Fill-3" fill="#FFFFFE"></path>
                <path d="M170,28 L167.085146,28 L167.085146,25.5790595 C166.758492,25.2740135 166.353101,24.9644208 165.869379,24.6506947 C165.386463,24.3377953 164.872861,24.0530031 164.328976,23.7954914 C163.783072,23.5383931 163.22465,23.330069 162.652905,23.1692792 C162.081159,23.0097294 161.543734,22.9291278 161.039419,22.9291278 L156.914046,22.9291278 L156.914046,28 L154,28 L154,15 L156.914046,15 L156.914046,19.9042956 L160.856508,19.9042956 C161.359612,19.9042956 161.907939,19.8174939 162.500278,19.6434772 C163.09302,19.4690471 163.667592,19.2503895 164.226013,18.985851 C164.784031,18.7217259 165.301671,18.4328002 165.778933,18.1203141 C166.254177,17.806588 166.636148,17.5184891 166.922021,17.2539506 L166.922021,15 L169.836875,15 L169.836875,18.6316174 C169.53687,18.8957426 169.199314,19.1561477 168.824206,19.4136593 C168.449907,19.671171 168.057841,19.9142158 167.648816,20.1440336 C167.240196,20.3738514 166.824307,20.5887889 166.401958,20.7913262 C165.979206,20.9926234 165.570989,21.1629201 165.174481,21.3026295 C165.596023,21.4687927 166.044213,21.6746367 166.519457,21.9172681 C166.993893,22.1615529 167.451774,22.4182379 167.892697,22.6898032 C168.334023,22.9609551 168.741029,23.2321071 169.114117,23.503259 C169.487205,23.774411 169.782769,24.0220025 170,24.2447935 L170,28" id="Fill-4" fill="#FFFFFE"></path>
                <path d="M62.0677487,18.2078621 C63.0359559,18.1831508 63.9791847,18.1714234 64.8982282,18.1714234 C65.8589022,18.1714234 66.931384,18.2166577 68.1152769,18.3083827 C69.2983769,18.4001077 70.5932846,18.5374858 72,18.7213546 L72,15.423024 C70.690819,15.267636 69.4482468,15.157901 68.2714905,15.0946569 C67.0947342,15.0314127 65.9707099,15 64.8982282,15 C64.2297609,15 63.5164911,15.0071202 62.7572296,15.0209418 C61.9983645,15.0351822 61.2323628,15.0598935 60.4596209,15.0946569 C59.6868789,15.1302579 58.9208772,15.1687908 58.1616157,15.211512 C57.4027506,15.2538144 56.6823442,15.295698 56,15.3380004 L56,28.6619996 C56.6823442,28.704302 57.4027506,28.7466044 58.1616157,28.788488 C58.9208772,28.8307904 59.6868789,28.8697421 60.4596209,28.9053431 C61.2323628,28.9401065 61.9983645,28.9648178 62.7572296,28.9794771 C63.5164911,28.9928798 64.2297609,29 64.8982282,29 C65.9707099,29 67.0947342,28.9685873 68.2714905,28.9053431 C69.4482468,28.842099 70.690819,28.732364 72,28.5773948 L72,25.2790642 C70.5932846,25.462933 69.2983769,25.5998923 68.1152769,25.6916173 C66.931384,25.7833423 65.8589022,25.8285766 64.8982282,25.8285766 C63.9791847,25.8285766 63.0359559,25.8164303 62.0677487,25.7925567 C61.099938,25.7678454 60.0869285,25.7301502 59.0287201,25.6811464 L59.0287201,23.3976545 L71.1856276,23.3976545 L71.1856276,20.6023455 L59.0287201,20.6023455 L59.0287201,18.3188536 C60.0869285,18.2698498 61.099938,18.2321546 62.0677487,18.2078621" id="Fill-5" fill="#FFFFFE"></path>
                <path d="M52.8612842,20.9812328 L41.1391506,20.9812328 L41.1391506,18.6624962 C42.3245398,18.5182459 43.4033918,18.4126342 44.3770112,18.3482367 C45.3497608,18.2829807 46.2242354,18.250782 47.0004348,18.250782 C47.7757646,18.250782 48.6498043,18.2829807 49.6238585,18.3482367 C50.5966082,18.4126342 51.6758951,18.5182459 52.8612842,18.6624962 L52.8612842,20.9812328 Z M55.250761,15.6808954 C53.9083925,15.4688132 52.605595,15.3048145 51.3467169,15.1957682 C49.8538919,15.0652561 48.4049862,15 47.0004348,15 C45.5954486,15 44.146543,15.0652561 42.6537179,15.1957682 C41.6266126,15.2846366 40.5686331,15.4108556 39.4854327,15.5692732 C38.9440499,15.6894818 38.0130454,16.0501073 38,17.1045078 L38,29 L41.1391506,29 L41.1391506,24.1242564 L56,24.1242564 L56,16.4382091 C55.9986955,16.4184606 55.9969561,16.4008586 55.9969561,16.3789635 C55.9969561,15.9346213 55.5416727,15.7521619 55.250761,15.6808954 Z" id="Fill-6" fill="#FFFFFE"></path>
                <path d="M91.0528729,20.9551793 L91.054137,21.1620976 L77.9564028,21.1620976 L77.9564028,19.907476 C78.0339366,19.8693703 78.111049,19.8308548 78.1881614,19.7911101 C78.4207628,19.6743344 78.6537856,19.5571489 78.8910222,19.4506167 C80.1669588,18.876572 81.4959893,18.5008411 82.8401894,18.3336675 C85.6057021,17.9870281 88.3227561,18.496334 90.9264591,19.8451956 C91.0339108,19.9005104 91.066357,19.9427136 91.0600363,20.0988242 C91.0486591,20.3807249 91.050766,20.6626255 91.0528729,20.9551793 Z M93.3156799,17.6063803 C91.0499232,16.1472988 88.5111126,15.288895 85.7691972,15.0541144 C84.0474412,14.908657 82.2923963,15.0565729 80.5550492,15.4962231 C78.8033753,15.9383318 77.164631,16.6480002 75.6855895,17.6047414 C75.222915,17.9042608 74.9987412,18.3406331 75.0000053,18.9380329 L75.0004267,20.0545724 L75.0000053,20.5696147 L75.0008481,28.5587108 C75.0008481,28.6242691 75.002955,28.6894176 75.0050619,28.7525175 L75.0113826,28.9963123 L77.9471325,28.9963123 L77.9471325,24.3101244 C78.5004035,24.2953738 80.507012,24.28554 83.2135315,24.28554 C87.0615677,24.28554 90.3925714,24.3035686 91.066357,24.3215971 L91.066357,29 L93.9726103,29 L93.9898869,28.781609 C93.9945221,28.7295721 93.9983145,28.6824521 93.9983145,28.6349223 L94,18.9404914 C94,18.3385844 93.7758262,17.9026218 93.3156799,17.6063803 Z" id="Fill-7" fill="#FFFFFE"></path>
                <path d="M29.9904878,23.4769906 C29.9904878,23.4570572 29.9872742,23.4390042 29.9784369,23.4269689 C29.9732148,23.4198229 29.9675911,23.4138053 29.962369,23.4070354 C29.8848414,23.2460632 29.674352,22.965114 29.2148103,22.4806928 C27.8683209,21.0612787 25.9586519,19.8799381 24.4655429,19.1002758 C24.4398343,19.0698114 24.4121172,19.0393471 24.3807848,19.0141481 C23.9051752,18.6282661 23.4906235,18.1886013 23.1162417,17.7094456 C23.0543803,17.6304639 22.9784595,17.5623892 22.8997268,17.4958189 C22.7510988,17.3213069 22.5900182,17.1291181 22.4168866,16.9181241 C22.412468,16.90308 22.4056391,16.8902925 22.4024255,16.8748722 C22.4024255,16.8748722 22.3919814,16.8729917 22.3803322,16.8733678 C22.3453845,16.8308681 22.3112402,16.7891207 22.2754892,16.7454927 C20.399161,14.4403552 17.0980125,14.4629214 15.6253901,14.417789 C14.6412317,14.3880768 13.902912,14.068765 13.5200945,13.8600277 C13.4819332,13.8009794 13.4473873,13.7359136 13.4180634,13.6595646 C13.3939615,13.5978836 13.3019728,13.5576406 13.2364962,13.5140126 C13.0159644,13.3684606 12.8460464,12.9400789 12.9320096,12.7031337 C12.9597267,12.6267848 13.015161,12.5301262 13.0838512,12.5022945 C13.5200945,12.3270304 13.7514721,11.9486704 14.0394891,11.6278542 C14.1599983,11.4939614 14.1881171,11.3344936 14.0306518,11.1814195 C13.9880719,11.1400482 13.977226,11.0475267 13.9840549,10.9817086 C13.9981143,10.8444309 14.0346688,10.7086576 14.0591723,10.5713799 C14.1009488,10.3370675 14.0254297,10.1230647 13.7956588,10.0538617 C13.5759304,9.98804356 13.3264764,9.99631784 13.0918852,10.007977 C13.0320323,10.011362 12.9143349,10.1802324 12.9348215,10.2246126 C13.0320323,10.4344783 12.8460464,10.5160927 12.7733392,10.6511138 C12.6913929,10.8038118 12.6202925,10.964784 12.5716871,11.1298934 C12.5576277,11.1769063 12.6243095,11.2822152 12.6797437,11.306662 C13.0738088,11.4792934 13.0115457,11.4883199 12.9030874,11.9061707 C12.6536334,11.8365916 12.4748781,12.2138233 12.220202,12.0077186 C12.1724,12.2901722 12.1254014,12.5681126 12.0784028,12.8468052 C12.0510874,12.8509424 12.023772,12.8554556 11.9964566,12.8599688 C11.8984424,12.6437094 11.8000266,12.4285783 11.7040209,12.2115666 C11.638946,12.0648863 11.6015881,11.9294891 11.7293279,11.7786717 C11.783557,11.714358 11.7964113,11.5627883 11.7554382,11.4879438 C11.6080153,11.2163971 11.7449941,11.0245844 11.8956305,10.8188559 C12.0097126,10.6631491 12.1213844,10.5006724 12.1981086,10.3269127 C12.2676023,10.1689493 12.2266291,10.0245256 12.0044905,10.0177557 C11.7799417,10.0109859 11.5549912,9.99895056 11.3320492,10.0128664 C11.1428498,10.0241495 11.0335881,10.1937721 11.0777748,10.3404524 C11.1187479,10.4769779 11.1295938,10.6221538 11.1685584,10.7594316 C11.202301,10.8786563 11.2304198,11.0133013 11.3075457,11.1046944 C11.4413109,11.2634101 11.5116079,11.405201 11.4617974,11.6244693 C11.4220294,11.8001096 11.4139955,11.9460377 11.2179672,12.0426962 C11.1243717,12.0889569 11.0813901,12.2378939 11.0243491,12.3443311 C10.979359,12.4289544 10.958069,12.5256129 10.9074552,12.605723 C10.7319134,12.8821589 10.7720832,12.9855874 11.1006716,13.0596797 C11.1798059,13.0773566 11.263359,13.0758522 11.3424933,13.0931529 C11.4409092,13.1145908 11.5373165,13.1465596 11.6345273,13.173639 C11.5883321,13.2695454 11.5421369,13.3650756 11.4935315,13.4662475 C11.1733788,13.3214477 10.8885754,13.1924442 10.6471553,13.0829981 C10.6471553,12.9483531 10.6893335,12.8043055 10.6387196,12.7610537 C10.5093731,12.6504793 10.3852486,12.3616319 10.1964509,12.5158343 C9.92209164,12.7399919 9.80439432,12.5395288 9.62965599,12.4297066 C9.56538442,12.3890874 9.48866024,12.3676495 9.41715811,12.3375613 C9.67866307,11.732411 9.65054425,11.6917918 8.9110195,11.6192038 C8.89334481,11.3713517 8.89093463,11.1186103 8.85478187,10.8707582 C8.79332218,10.451779 8.5362359,10.2682406 8.09718074,10.3227756 C7.63040846,10.3803194 7.29619629,10.604477 7.18291765,11.0975485 C6.99693179,10.7692102 6.59443108,10.7598077 6.37189077,11.0757345 C6.17345229,11.3559315 6.03165314,11.6737388 5.84526559,12.0114797 C5.46686672,12.096479 5.39817648,12.1927615 5.43111566,12.6305458 C5.43553433,12.6862091 5.40339854,12.7666952 5.35881014,12.8001684 C4.98844521,13.0837503 4.94385681,13.2375766 5.0503066,13.6960466 C5.09368991,13.8859788 5.10051876,14.0917073 5.07842541,14.2854006 C5.03223022,14.6874551 5.27083843,15.1278721 5.60505059,15.2264112 C5.8279926,15.2918532 6.04410576,15.3772286 6.32850746,15.4761438 C6.14573518,15.5743068 6.04571255,15.6280896 5.94368143,15.6826246 C5.90471679,15.6420054 5.87780307,15.6062756 5.8428554,15.5795722 C5.72475639,15.4904357 5.6042472,15.4103257 5.45561919,15.5310549 C5.3190421,15.6416293 5.33109302,15.7522037 5.40781721,15.9007645 C5.49458383,16.070011 5.41223588,16.3419338 5.73439713,16.3543452 C5.73439713,16.3543452 5.72114112,16.4280614 5.7380124,16.4487471 C5.77255837,16.4912468 5.82076205,16.5408924 5.86936743,16.5487906 C5.90793037,16.5548083 5.98063758,16.5111803 5.99429529,16.4743221 C6.01196997,16.4269331 5.99389359,16.3614911 5.97702231,16.3084606 C5.94247634,16.2001428 5.89909303,16.0948338 5.85972669,15.9883966 C5.88905059,15.9767374 5.9183745,15.9650782 5.9476984,15.953419 C6.06459232,16.0685066 6.18188794,16.1839703 6.3373448,16.3370444 C6.40322316,16.3494558 6.53739006,16.3761592 6.67195866,16.4024864 C6.67798412,16.4235482 6.68400958,16.44461 6.68963334,16.4649196 C6.21924579,16.6619977 5.68418496,16.7774615 5.53997563,17.3540279 C5.40058666,17.9106609 5.75086672,18.2916536 6.02843956,18.704239 C5.95774084,18.8046586 5.88021325,18.9013171 5.81714677,19.00625 C5.59299967,19.3778401 5.6195117,19.5444539 5.92399826,19.8633895 C5.96215951,19.9036326 5.95733914,19.981486 5.97300533,20.0416625 C6.01156828,20.1932322 6.00192754,20.4162615 6.10114678,20.4794468 C6.22486955,20.5580524 6.46428115,20.5603091 6.60808879,20.498252 C6.93025004,20.3590938 7.10539006,20.090556 7.15841411,19.7396515 C7.19095159,19.523016 7.28414537,19.3146547 7.34841694,19.1025324 C7.39501383,18.9487062 7.43638865,18.7926233 7.48499403,18.638797 C7.50186531,18.5846381 7.51712981,18.5064086 7.55770124,18.4864751 C8.0128243,18.2683352 8.47156263,18.0550846 8.93311285,17.8489799 C9.10825288,17.7707504 9.30428117,17.7323879 9.47259234,17.6440036 C9.62443393,17.5646458 9.73851597,17.4187177 9.89156264,17.343497 C10.262731,17.1607108 10.6415315,16.9899599 11.028366,16.841399 C11.1922585,16.7778376 11.3850733,16.7857357 11.5630252,16.7526386 C11.6473816,16.7372184 11.7470025,16.7221743 11.8064537,16.6710242 C12.1772204,16.3517124 12.5889601,16.3107172 13.0697918,16.4660479 C13.0633646,16.4762027 13.0569375,16.4863574 13.0505103,16.4961361 C12.5033986,16.9452036 9.39626985,19.7768858 10.5567734,25.3236581 C10.6306857,25.7546726 10.739144,26.1740278 10.8869686,26.5794673 C11.3075457,27.8345242 12.6805471,31.9178784 8.58042261,34.0364686 L16.0451638,38.9923826 C16.646103,39.0093073 17.2522642,38.9987764 17.8463746,38.9532679 L23.0804906,35.6345318 C23.0403209,35.4201529 22.9864934,35.2099111 22.9069573,35.0090719 C22.30883,33.4986408 21.3736787,32.1585845 20.5136447,30.7827984 C19.9990705,29.9598843 19.4354892,29.1659301 18.9329658,28.3366222 C18.489492,27.6043489 18.569028,26.8758367 19.1169432,26.210886 C19.2237947,26.0803781 19.3728244,25.927304 19.525871,25.8975919 C19.9123039,25.8219951 20.1320323,25.588811 20.3417183,25.3007158 C20.4220578,25.1905176 20.5851469,25.1333498 20.7169036,25.0630185 C20.8603095,24.9862934 21.0157664,24.9310062 21.1559588,24.8505201 C21.2226405,24.8125337 21.2599984,24.7309192 21.3210563,24.6816497 C21.630765,24.4292843 21.971806,24.2066312 22.2509856,23.9264342 C22.9579729,23.216351 23.8276476,22.9440522 24.8202417,22.9436761 C25.0158683,22.9429239 25.2110931,22.9004242 25.4071214,22.8857562 C25.881526,22.8492741 26.3599475,22.7635226 26.8295316,22.7958674 C27.8626971,22.8661988 28.8042756,23.2712621 29.7522813,23.6421 C29.8081172,23.663914 29.9177806,23.6688034 29.9382672,23.6394673 C29.9463011,23.6281842 29.9535317,23.6135162 29.9603605,23.5988481 C29.9945048,23.5845562 30.0121795,23.5495786 29.9904878,23.4769906" id="Fill-8" fill="#ABACAB"></path>
                <path d="M20,20 C20,20 20.3573979,20.3110487 20.3573979,20.4710385 C20.3573979,20.4710385 21.656511,20.7815769 21.9995083,21 C21.9995083,21 22.0850394,20.6555244 20,20" id="Fill-9" fill="#FFFFFE"></path>
                <path d="M20.1870894,21.9248577 C20.1870894,21.9248577 20.7943445,21.9373814 21,22 C21,22 20.7852042,21.4 20,21 C20,21 20.1962296,21.4872865 20.1870894,21.9248577" id="Fill-10" fill="#FFFFFE"></path>
                <path d="M16,19.3321433 C16,19.3321433 18.6404155,18.699156 20,20 C20,20 18.8143496,18.3010038 16,19.3321433" id="Fill-11" fill="#FFFFFE"></path>
                <path d="M18,19.6466425 C18,19.6466425 17.345191,18.6782836 16.319604,19.1115879 C16.319604,19.1115879 15.8165296,19.4417574 16.0727088,20 C16.0727088,20 16.5383572,19.0769789 18,19.6466425" id="Fill-12" fill="#FFFFFE"></path>
                <path d="M16,20.3050262 C16,20.3050262 16.0201884,20.483416 16.2512337,20.5 C16.2512337,20.5 16.5890534,20.1772848 17,20.1902831 C17,20.1902831 16.6864065,19.6936602 16,20.3050262" id="Fill-13" fill="#FFFFFE"></path>
                <path d="M18,20.321268 C18.283805,20.199268 19,20.314768 19,20.314768 C18.1263103,19.602768 18,20.321268 18,20.321268" id="Fill-14" fill="#FFFFFE"></path>
                <path d="M16.3597186,21.4070861 C16.5861917,21.3865861 16.4925242,21.1840861 17,21.0525861 C17,21.0525861 16.6653474,20.8550861 16,21.2255861 C16,21.2255861 16.1328056,21.4270861 16.3597186,21.4070861" id="Fill-15" fill="#FFFFFE"></path>
                <path d="M18.4302482,21.0951978 C18.1954698,20.8936978 18.011001,21.0746978 18.011001,21.0746978 C17.9717116,21.1611978 18.0502905,21.2191978 18.0502905,21.2191978 C18.2462586,20.9506978 18.6655057,21.2966978 18.4302482,21.0951978" id="Fill-16" fill="#FFFFFE"></path>
                <path d="M18,21.0258041 C18.2831125,21.0793041 18.488737,21.3838041 18.488737,21.3838041 C18.5878697,20.8568041 18,21.0258041 18,21.0258041" id="Fill-17" fill="#FFFFFE"></path>
                <path d="M18.5,21.288 C18.4442289,21.016 18.1784675,21 18.1784675,21 C18.0082444,21.14 18,21.342 18,21.342 C18.4762367,21.3535 18.5,21.288 18.5,21.288" id="Fill-18" fill="#FFFFFE"></path>
                <path d="M18.2851782,21.0836459 C17.851729,21.2861041 17.7864653,21.9662001 19,22 C19,22 18.1589607,21.7278933 18.4508001,21.3984292 C18.7432552,21.0696479 18.7180117,20.8811876 18.2851782,21.0836459" id="Fill-19" fill="#FFFFFE"></path>
                <path d="M18.457514,21.4454711 C18.383514,21.4328093 18.236514,21.2306036 18.236514,21.0790453 C18.236514,20.9271033 18.049514,21.0360718 18.036014,21.063314 C17.929514,21.2747282 18.081014,21.3886847 18.207514,21.4677252 C18.334514,21.5463821 18.531014,21.4581329 18.457514,21.4454711" id="Fill-20" fill="#FFFFFE"></path>
                <path d="M18.0962968,21.0087745 C18.0182968,21.1157745 18.0137968,21.1652745 18.0017968,21.2107745 C17.9897968,21.2562745 18.0347968,21.5112745 18.2312968,21.2932745 C18.4272968,21.0747745 18.1267968,20.9672745 18.0962968,21.0087745" id="Fill-21" fill="#FFFFFE"></path>
                <path d="M19.430475,21.1437248 C19.491975,20.9457248 19.344475,20.9992248 19.315975,21.0327248 C19.287475,21.0652248 19.242475,21.1027248 19.119975,21.1027248 C18.997475,21.1027248 18.965975,21.2437248 19.038475,21.2382248 C19.148475,21.2302248 19.369475,21.3412248 19.430475,21.1437248" id="Fill-22" fill="#FFFFFE"></path>
                <path d="M18.4157068,22.2090485 C18.5031439,22.2090485 18.5153187,22.0360485 18.4850662,22.0565485 C18.4548137,22.0775485 18.3766,22.0605485 18.2463667,22.0155485 C18.1168712,21.9705485 17.969667,22.0305485 18.0054535,22.1020485 C18.068541,22.2295485 18.3282698,22.2090485 18.4157068,22.2090485" id="Fill-23" fill="#FFFFFE"></path>
                <path d="M16,21 C16.0305362,21.1578781 16.6247541,22.4461906 16.4761996,21.8379158 C16.3276452,21.2310078 16,21 16,21" id="Fill-24" fill="#FFFFFE"></path>
                <path d="M16.127,21.1164324 C16.2165,21.0749324 16,20.9549324 16,21.0179324 C16,21.0544324 16.0365,21.1574324 16.127,21.1164324" id="Fill-25" fill="#FFFFFE"></path>
                <path d="M19.9514412,21.9112895 C20.1597256,21.3015936 19.6305458,21.2341959 19.6305458,21.2341959 C19.7436145,21.3537976 19.7436145,21.4453493 19.7436145,21.4453493 C19.1791866,22.1197158 18.8573758,21.9790767 18.8573758,21.9790767 C19.3870133,21.8193481 19.6067419,21.4519722 19.6067419,21.4519722 C19.5284636,21.3015936 19.4501853,21.2828936 19.4501853,21.2828936 C19.1988707,21.4944367 18.8500515,21.5832614 18.8500515,21.5832614 C18.6692331,21.951806 18.0690993,22.0558244 18.0690993,22.0558244 C18.4499623,21.9759601 18.6147587,21.7059797 18.6147587,21.7059797 C18.0379711,21.7827274 17.5673857,21.479243 17.5673857,21.479243 C17.6300999,21.6019613 17.8067983,21.730913 17.8067983,21.730913 C17.4419572,21.7184464 16.9594698,21.2497792 16.9594698,21.2497792 C16.7296703,21.1181004 16.5410699,21.1114775 16.5410699,21.1114775 C16.9814427,22.8868029 18.4293627,22.1134825 18.8761443,21.8244127 C18.9205477,21.7940253 18.9635779,21.7659754 19.008897,21.7328609 C19.008897,21.7328609 18.9603736,21.7698712 18.8761443,21.8244127 C16.5058218,23.4435156 16.3529273,20.776437 16.3529273,20.776437 C16.091084,20.4577589 15.3801704,20 15.3801704,20 C14.1359571,20.0323353 14,21.0214841 14,21.0214841 C14.6797854,22.7052576 17.4062513,22.953811 17.4062513,22.953811 C17.4144912,22.8712196 17.3476571,22.8034323 17.3476571,22.8034323 C17.8223624,22.797199 17.9477908,22.9997817 17.9477908,22.9997817 C19.0578781,23.0118587 19.7436145,22.5213749 19.9514412,21.9112895" id="Fill-26" fill="#FFFFFE"></path>
                <path d="M22.0509538,22.3334158 C22.0632919,22.5968345 22.4144341,22.7108921 22.6407147,22.8750385 C22.8667486,23.0388831 22.8788399,22.9945274 22.8788399,22.9945274 C22.6204802,22.71572 22.6930282,22.5220031 22.6930282,22.5220031 C22.4507081,22.0947397 23,22.2836288 23,22.2836288 C22.4588512,21.7172634 22.4507081,22.1740973 22.4507081,22.1740973 C22.2328173,22.3183288 22.7737194,22.8599515 22.6446629,22.7802922 C22.5156064,22.7012365 22.3418861,22.3780733 22.3258465,22.298414 C22.3095603,22.2190565 22.2249209,22.1393972 22.1681657,22.1342676 C22.1116572,22.1291381 22.0109784,22.0250379 22.0109784,22.0250379 C21.9584181,22.1098267 22.1116572,22.3482011 22.1116572,22.3482011 C22.0672401,22.298414 22.0509538,22.3334158 22.0509538,22.3334158" id="Fill-27" fill="#FFFFFE"></path>
                <path d="M23.9063212,22.8973256 C24.184445,23.1391216 23.7774144,22.2243858 23.5403252,22.0705964 C23.5403252,22.0705964 22.8008724,21.8292448 23.0520543,22.2390536 C23.0520543,22.2390536 23.3231317,22.158603 23.5129688,22.3052808 C23.7028059,22.4515141 23.7500579,22.8026517 23.3844764,22.6413062 C23.091431,22.512852 23.0715354,22.4124 23.0756803,22.3772862 C23.0620021,22.4439579 23.0288428,22.7417582 23.4723486,23 C23.4723486,23 23.6286119,22.655974 23.9063212,22.8973256" id="Fill-28" fill="#FFFFFE"></path>
                <path d="M23,22.0017332 C23.1555,22.2892332 23.4825,22.2892332 23.4825,22.2892332 C23.409,21.9597332 23,22.0017332 23,22.0017332" id="Fill-29" fill="#FFFFFE"></path>
                <path d="M22.9097689,22.4225319 C22.4308237,22.3414552 22.1874025,22.0063583 22.1874025,22.0063583 C22.1874025,22.0063583 21.5565513,22.0214639 20.9257001,22.0011176 C20.2953135,21.9807714 20.3255089,22.2449645 20.3255089,22.2449645 C20.0518923,23.2650523 18,23.2752254 18,23.2752254 C18.455718,24.3766982 20.7129388,23.9201403 21.1616886,23.8282739 C21.6099739,23.7370239 21.7544472,23.7524378 21.7623444,23.671361 C21.7697771,23.5899759 21.4506352,23.4071678 21.4506352,23.4071678 C22.0201665,23.2804661 22.4991117,22.9758887 22.4991117,22.9758887 C21.7697771,22.4277726 23.3887141,22.5036087 22.9097689,22.4225319" id="Fill-30" fill="#FFFFFE"></path>
                <path d="M16,22 C16.1520113,22.7854193 17.1060593,23.0802903 16.9902832,22.9816386 C16.874949,22.883529 16.5426451,22.115455 16.4918274,22.0715496 C16.4410097,22.0271021 16,22 16,22" id="Fill-31" fill="#FFFFFE"></path>
                <path d="M24.1203616,22.0636763 C24.2269625,21.7952185 23.8339223,21.4525162 23.8339223,21.4525162 C23.5015064,20.4837142 22.7622165,20.0663145 22.7622165,20.0663145 C22.5559315,19.894737 22.4228837,20.1631947 22.4228837,20.1631947 C22.3227928,20.0210434 21.8170485,19.9318593 22.0701241,20.0663145 C22.3227928,20.1998643 23.228494,21.5643358 23.3814786,21.6385805 C23.5344632,21.7128251 23.6142105,21.9600054 23.6142105,21.9600054 C23.6142105,21.9600054 23.4278622,21.7060344 23.4079254,21.8250975 C23.3879886,21.9446132 23.873796,22.7871087 24.0068437,23.2117518 C24.1402984,23.6363949 23.5344632,23.644091 23.228494,23.5992726 C22.922118,23.5544542 22.0965709,23.5472108 22.5823783,23.6590305 C23.0681857,23.7708501 22.5225678,24.0166723 22.8688175,23.8450948 C23.2150672,23.6735172 23.4213522,24.0764302 23.4213522,24.0764302 C27.4620167,25.1647479 29,26 29,26 C28.7269876,24.0316118 24.1203616,22.0636763 24.1203616,22.0636763" id="Fill-32" fill="#FFFFFE"></path>
                <path d="M23.5776014,21.8210212 C23.5776014,21.8210212 23.4473632,21.0453935 22.3447273,20 C22.3447273,20 22.5209525,20.2525204 22.1302381,20.1712212 C22.1302381,20.1712212 23.202333,21.171859 22,21.2260585 C22,21.2260585 22.1990432,21.5779446 22.4289784,21.6140776 C22.4289784,21.6140776 22.4977834,21.3340469 22.9495798,21.5685008 C23.4013762,21.8033653 23.8917877,22.8035925 23.6769474,22.9748137 C23.6769474,22.9748137 24.4660992,23.2725003 23.5776014,21.8210212" id="Fill-33" fill="#FFFFFE"></path>
                <path d="M14.1534746,18.8251288 C14.38657,18.8610469 14.4472224,18.7712517 14.7762516,18.5655391 C15.104488,18.3590102 15.7185437,18.3320716 15.5108193,18.3320716 C15.3034912,18.3320716 14.8709962,18.1528894 15.2170715,18.179828 C15.5627504,18.2071747 15.6491701,18.0365638 16.1078289,17.6961584 C16.5660913,17.3553448 16.9724226,17.2206521 17.050121,17.5169762 C17.1282159,17.8120758 15.3724684,18.3590102 16.6263472,18.1173795 C17.8806225,17.8753406 20.0078162,19.6043062 21.0888556,20.3928712 C22.169895,21.1818444 22.0660327,20.9757236 22.0660327,20.9757236 C22.9223015,20.8500104 21.849587,20.0345068 21.7199574,19.738999 C21.5907242,19.443083 22.3086422,19.774917 22.3086422,19.774917 C22.2392686,19.4075731 23,19.667571 23,19.667571 C19.8004882,14.7749576 15.9694781,16.1900482 15.9694781,16.1900482 C16.0642226,16.5304536 16.0642226,17.1761626 15.139373,16.9251443 C14.2137306,16.6745341 14.5427598,18.1708484 14.2482192,18.3500307 C13.9544714,18.5292129 13.9195864,18.7888026 14.1534746,18.8251288" id="Fill-34" fill="#FFFFFE"></path>
                <path d="M22.8318941,22.2459924 C22.4876301,22.0047685 22.9816169,22.1736252 22.745705,22.0288908 C22.5093005,21.8848875 22.1763643,22.3260349 22.1763643,22.3260349 C22.4881226,22.5826095 22.1118456,22.3581981 22.0685047,22.422159 C22.0256564,22.4864854 21.9503025,22.6951806 22.0473268,22.6871398 C23.1599053,22.5946707 22.7885533,22.8315087 23.0786412,22.8150616 C24.448802,22.7397705 27,23 27,23 C24.7009668,22.4945262 23.6696524,22.3823205 23.4977666,22.3581981 C23.3258809,22.3337102 23.1751731,22.4864854 22.8318941,22.2459924" id="Fill-35" fill="#FFFFFE"></path>
                <path d="M22.000691,22.066007 C22.000691,22.066007 21.93827,22.560007 23,22.120507 C23,22.120507 22.7004936,21.890507 22.000691,22.066007" id="Fill-36" fill="#FFFFFE"></path>
                <path d="M21.7653823,22 C21.5558241,22 21,23 21,23 C21.9941276,21.8819652 21.2353408,22.9610545 21.7129178,22.5925704 C22.190195,22.2240863 21.974341,22 21.7653823,22" id="Fill-37" fill="#FFFFFE"></path>
                <path d="M19.6291533,25.1054397 C19.721026,25.0080429 19.7395691,25.0300673 19.9047714,24.901347 C20.0708166,24.7721372 19.9692509,24.5465095 19.9692509,24.5465095 C19.8221703,24.6003469 18.8570855,24.7398347 18.4984448,24.4070217 C18.1398041,24.0737192 18.1671974,24.0844866 17.6711691,23.869137 C17.1742979,23.6542768 16.6411834,23.5793938 16.1540053,22.5902538 C16.1540053,22.5902538 15.3907876,22.3328131 15.0873548,22 C15.0873548,22 13.9385246,22.4189529 14.0025827,24.7829047 C14.0670621,27.1468564 15.1332911,27.0719735 15.243707,26.9530417 C15.3541228,26.8355783 13.8462305,25.4392317 15.8779657,25.0726478 C15.9976531,25.0516023 16.650455,25.7069504 16.650455,25.0192999 C16.650455,24.3311599 16.9998241,24.1701371 17.449916,24.4388347 C17.9008508,24.7070429 18.5443812,25.0300673 18.6543755,24.9977649 C18.7647914,24.9654624 18.5903175,24.6003469 18.9670799,24.7187892 C19.3442637,24.8362527 19.5372806,25.2018576 19.6291533,25.1054397" id="Fill-38" fill="#FFFFFE"></path>
                <path d="M18.6089558,23.0043533 C18.414556,23.0043533 18.277882,23.0431375 18.2477458,23.0714177 C17.5257504,23.7497372 18.5813663,23.4834998 18.8865484,23.2176664 C19.1925794,22.9510251 18.8037799,23.0043533 18.6089558,23.0043533" id="Fill-39" fill="#FFFFFE"></path>
                <path d="M20.2390985,24.0184091 C20.2065985,23.9689091 20.0595985,24.0349091 20.0595985,24.0349091 C19.9940985,24.1669091 19.9445985,24.3809091 20.1250985,24.2989091 C20.3045985,24.2159091 20.2720985,24.0679091 20.2390985,24.0184091" id="Fill-40" fill="#FFFFFE"></path>
                <path d="M20.3105262,23.012801 C20.1470262,22.979801 20.0860262,23.015801 20.0490262,23.061801 C19.9180262,23.226301 20.0820262,23.292801 20.1635262,23.292801 C20.2450262,23.292801 20.4745262,23.045301 20.3105262,23.012801" id="Fill-41" fill="#FFFFFE"></path>
                <path d="M21.5,23 L21.2606474,23 C20.8073397,23.642 21.0593911,23.494 21.1725256,23.412 C21.2856601,23.329 21.5,23 21.5,23" id="Fill-42" fill="#FFFFFE"></path>
                <path d="M21.5,23 C21.5,23 21.0793524,23.4115 21.0071021,23.445 C20.9344085,23.4775 21.442377,23.5935 21.5,23" id="Fill-43" fill="#FFFFFE"></path>
                <path d="M20.1906755,24.1002484 C19.7740872,24.5942484 20.1310979,24.3802484 20.3994244,24.1827484 C20.6668413,23.9852484 20.3321154,23.9327484 20.1906755,24.1002484" id="Fill-44" fill="#FFFFFE"></path>
                <path d="M13.9662338,19.9509109 C13.722422,19.7920611 14.0991811,19.4848639 13.7810089,19.43629 C13.4628368,19.3881537 13.3091588,19 13.3091588,19 C13.0018027,19.1540362 13,19.3724 13,19.3724 C13.063995,19.87258 14.2091443,20.1101983 13.9662338,19.9509109" id="Fill-45" fill="#FFFFFE"></path>
                <path d="M13.4663478,19.0975875 C13.4137958,19.0853891 13.043102,19 13.043102,19 C12.9638698,19.0975875 12.9768057,19.2683657 13.2282468,19.3896108 C13.4796879,19.5115952 13.5193041,19.5600193 13.4930281,19.3896108 C13.4663478,19.2192023 13.5193041,19.109786 13.4663478,19.0975875" id="Fill-46" fill="#FFFFFE"></path>
                <path d="M16,22.9551038 C14.8185885,22.0788786 14.7108555,21.2998164 14.7108555,21.2998164 C14.6492285,20.1505677 15.7767735,19.6928906 15.7767735,19.6928906 C15.6256733,19.3605141 14.9381905,19.355678 14.2438601,19.5667106 C13.5495298,19.7773036 12.9985392,19 12.9985392,19 C11.2971789,20.7537694 11,23.6057879 11,23.6057879 C13.0610792,25.8458117 14.9710582,24.714149 14.9710582,24.714149 C15.2486077,23.2602219 16,22.9551038 16,22.9551038" id="Fill-47" fill="#FFFFFE"></path>
                <path d="M7.86899038,19.0263653 C7.42908654,19.1792216 6.99399038,19.3527935 6.54717548,19.4786566 C6.30288462,19.5473949 6.19020433,19.7501569 6.02644231,19.9030132 C6.00600962,19.9215317 6.00811298,19.9670433 6,20 C6.17247596,19.6177024 6.4780649,19.8101067 6.73647837,19.8132454 C6.78545673,19.6446955 6.88161058,19.5640301 7.0483774,19.5740741 C7.09945913,19.5768989 7.15414663,19.5304457 7.20492788,19.5015694 C7.24519231,19.4792844 7.2797476,19.4447583 7.32061298,19.4246704 C7.46003606,19.3565599 7.60456731,19.2988073 7.74098558,19.2237916 C7.83293269,19.173258 7.9140625,19.1007533 8,19.0382925 C7.99128606,19.0251099 7.98197115,19.0125549 7.97295673,19 C7.93840144,19.0087884 7.90294471,19.014752 7.86899038,19.0263653" id="Fill-48" fill="#FFFFFE"></path>
                <path d="M7,18 C7.59075776,17.9759259 10.1072047,17.3392593 11,17 C9.04820882,17.2677778 7.5774404,17.6351852 7,18" id="Fill-49" fill="#FFFFFE"></path>
                <path d="M8.99018453,16.3703664 C8.4204947,16.2463804 7.85119749,16.1167586 7.27954456,16.0026352 C7.19787986,15.9866673 7.10482921,16.0472513 7,16.0773085 C7.18138987,16.1674802 7.32273263,16.2374571 7.46486062,16.3079037 C7.45504515,16.3351431 7.44522968,16.3628521 7.43541421,16.3896218 C7.39222615,16.3694271 7.35021594,16.343127 7.3054574,16.3313859 C7.24813506,16.3163573 7.18884963,16.308843 7.13034943,16.310252 C7.12171182,16.310252 7.10011779,16.399954 7.10797016,16.4060593 C7.15626227,16.4459791 7.21162152,16.5009274 7.26344719,16.4999881 C7.84255987,16.4807327 8.42127994,16.4525541 9,16.4267237 C8.99725167,16.4079379 8.99332548,16.3896218 8.99018453,16.3703664" id="Fill-50" fill="#FFFFFE"></path>
                <path d="M8,15 C8.66666667,15.2993197 9.24389119,15.7844061 10,16 C9.3812817,15.4955521 8.67342862,15.2799581 8,15" id="Fill-51" fill="#FFFFFE"></path>
                <path d="M8,15.1636094 C8.11734802,15.2486094 8.18258843,15.3346094 8.25248888,15.3406094 C8.83245075,15.3921094 9.4132599,15.4286094 10,15.4706094 C9.44588011,15.0836094 8.95022241,14.8101094 8,15.1636094" id="Fill-52" fill="#FFFFFE"></path>
                <path d="M9.02192759,16.1874735 C8.68468468,16.2388012 8.34438212,16.263919 8.0054394,16.3003216 C8.00373959,16.3123345 8.00203978,16.3243473 8,16.3363602 C8.19853816,16.3811354 8.40489546,16.4018849 8.59255482,16.4768743 C8.82678905,16.570429 8.96141424,16.3523773 9.15213327,16.3148826 C9.38194799,16.2701074 9.60564338,16.1911137 9.83239844,16.1277732 C9.88781234,16.1124841 9.94424613,16.1001072 10,16.0866382 C9.99524052,16.0578802 9.99048105,16.0287581 9.98606153,16 C9.66479687,16.0637046 9.34489206,16.139422 9.02192759,16.1874735" id="Fill-53" fill="#FFFFFE"></path>
                <path d="M11.1230305,13.8857788 C11.3996336,13.9345372 11.6815355,13.9607223 12,14 C11.8071197,13.6248307 11.6508019,13.3191874 11.4870656,13 C11.4377857,13.0311512 11.377908,13.0496614 11.3567124,13.0844244 C11.2311283,13.2957111 11.106074,13.5069977 11.0022154,13.7259594 C10.9852589,13.7616253 11.0695115,13.8758465 11.1230305,13.8857788" id="Fill-54" fill="#FFFFFE"></path>
                <path d="M9.38859778,14.3619309 C9.54453993,14.3971029 9.69167889,14.4712288 9.83797946,14.5370344 C9.92726892,14.5771229 10.0035632,14.6425503 10.0928527,14.683017 C10.3397611,14.7938276 10.6692517,14.7393677 10.8474114,14.9954046 C10.857053,15.0097759 10.9329281,14.9863279 10.9777824,14.9810332 C10.9849088,14.9538033 10.9928736,14.9265734 11,14.8993435 C10.3334731,14.5994363 9.66652693,14.299529 9,14 C9.05449591,14.2076281 9.18109411,14.315035 9.38859778,14.3619309" id="Fill-55" fill="#FFFFFE"></path>
                <path d="M6.80457879,20.0047104 C6.60189792,19.9776996 6.34963003,20.0693015 6.18064907,20.2166866 C6.00155813,20.3722923 5.95822967,20.6694112 6.03910945,21 C6.31063442,20.7469205 6.46806114,20.2084659 6.90856708,20.5971866 C7.05588382,20.2906727 7.02796104,20.0346572 6.80457879,20.0047104" id="Fill-56" fill="#FFFFFE"></path>
                <path d="M6.01367118,21.1158393 C5.98314195,21.2267666 6.00310337,21.3638908 6.08001353,21.4609011 C6.11406536,21.504699 6.35360236,21.5137042 6.45869335,21.4776835 C6.74050158,21.3810825 6.95772876,21.2304505 7,21 C6.7581146,21.0122798 6.55791333,21.0143264 6.36123467,21.0343834 C6.23676936,21.0474818 6.02541319,21.074088 6.01367118,21.1158393" id="Fill-57" fill="#FFFFFE"></path>
                <path d="M13.9804885,12 C13.8897724,12.0418375 13.7967001,12.0775022 13.7095184,12.1268841 C13.5846365,12.1988994 13.4715359,12.318925 13.3413524,12.353218 C13.0391618,12.4355212 12.9667068,12.6515671 13.0126539,12.9972406 C13.6335289,13.0191882 13.7967001,12.9190526 13.9840229,12.3751655 C14.020545,12.2681713 13.9834339,12.1261983 13.9804885,12" id="Fill-58" fill="#FFFFFE"></path>
                <path d="M12,15.6407982 C11.6762197,15.4279379 11.3520983,15.2134146 11.0279768,15 C11.0184237,15.0304878 11.0095531,15.0620843 11,15.0925721 C11.3135449,15.3935698 11.6270897,15.693459 11.947117,16 C11.9669055,15.866408 11.9808939,15.7721729 12,15.6407982" id="Fill-59" fill="#FFFFFE"></path>
                <path d="M8.42083596,16.0405 C8.28217552,16.0275 8.14321166,16.0135 8.00455122,16 C8.00333756,16.03 8.00151707,16.061 8,16.091 C8.31828185,16.1915 8.63626028,16.2915 8.96394798,16.395 C9.03494698,16.189 8.99762699,16.096 8.88232947,16.082 C8.72880171,16.064 8.57466713,16.054 8.42083596,16.0405" id="Fill-60" fill="#FFFFFE"></path>
                <path d="M7,13.3185384 C6.72496617,12.7072758 6.34100135,13.1626805 6,13.168765 C6.31596752,13.3690869 6.61569689,13.7140337 7,13.3185384" id="Fill-61" fill="#FFFFFE"></path>
                <path d="M13.3787879,10.2597097 C13.5515152,10.3396524 13.7242424,10.4200573 13.8974747,10.5 C13.9313131,10.4745847 13.9656566,10.4482452 14,10.4223677 C13.9363636,10.3026847 13.9020202,10.1150734 13.8010101,10.0776436 C13.6055556,10.0041702 13.3722222,10.0037081 13.1540404,10.0000113 C13.1141414,9.99862503 13.0712121,10.1247774 13,10.2398395 C13.189899,10.2199694 13.2979798,10.208417 13.4065657,10.1968645 C13.3969697,10.2176589 13.3878788,10.2384532 13.3787879,10.2597097" id="Fill-62" fill="#FFFFFE"></path>
                <path d="M12,13.9004558 C12.2193795,14.0479238 12.3406026,14.045553 12.3886992,13.7980343 C12.4122567,13.6756975 12.4814569,13.5599991 12.4961804,13.4376623 C12.5104131,13.3191189 12.4814569,13.1963079 12.4652611,13 C12.2782733,13.1375104 12.1585225,13.191092 12.0986471,13.2816592 C12.0574215,13.3442501 12.065274,13.5168493 12.1084628,13.5400838 C12.4623164,13.7335467 12.2017113,13.7956634 12,13.9004558" id="Fill-63" fill="#FFFFFE"></path>
                <path d="M9.06354214,16 C9.04100946,16.1395 9.02433529,16.2445 9,16.3965 C9.09508788,16.3495 9.16989635,16.3045 9.24966201,16.2755 C9.30554304,16.255 9.37404236,16.233 9.42676881,16.2505 C9.60973411,16.3135 9.78819288,16.3925 9.96845426,16.466 C9.97926994,16.4305 9.98963497,16.395 10,16.3595 C9.70977918,16.104 9.37359171,16.003 9.06354214,16" id="Fill-64" fill="#FFFFFE"></path>
                <path d="M7,16.1161716 C6.15698006,15.9324077 6.0988604,15.9440089 6,16.3161772 C6.27293447,16.6205942 6.66438746,16.5421697 7,16.1161716" id="Fill-65" fill="#FFFFFE"></path>
                <path d="M9,15.1469849 C9.31986532,15.2642379 9.63973064,15.3823283 9.95959596,15.5 C9.97354497,15.4723618 9.98653199,15.4447236 10,15.4166667 C9.69023569,15.278057 9.37999038,15.1390285 9.06926407,15 C9.04665705,15.048995 9.02308802,15.0979899 9,15.1469849" id="Fill-66" fill="#FFFFFE"></path>
                <path d="M13.4799293,12.1511249 C13.3536902,11.9644745 13.1700363,11.9824482 13,12.0377521 C13.158995,12.1930637 13.301428,12.3317841 13.4733045,12.5 C13.477721,12.3921575 13.5266709,12.2202547 13.4799293,12.1511249" id="Fill-67" fill="#FFFFFE"></path>
                <path d="M13,14.8497854 C12.6919831,14.5665236 12.3839662,14.2832618 12.0759494,14 C12.0511603,14.0367872 12.0253165,14.0735745 12,14.1103617 C12.2985232,14.4064991 12.596519,14.7026364 12.8950422,15 C12.9298523,14.9497241 12.9646624,14.9000613 13,14.8497854" id="Fill-68" fill="#FFFFFE"></path>
                <path d="M7.07874396,12.5259903 C7.00724638,12.6639416 7.0236715,12.8416952 7,13 C7.37101449,12.6291145 7.69565217,12.3048159 8,12.0004184 C7.63188406,11.9909201 7.27681159,12.1424404 7.07874396,12.5259903" id="Fill-69" fill="#FFFFFE"></path>
                <path d="M7,14.1042779 C7.33836858,14.4075587 7.63066465,14.6690924 8,15 C7.7439577,14.0594611 7.4913142,13.8390607 7,14.1042779" id="Fill-70" fill="#FFFFFE"></path>
                <path d="M11,15.0525532 C11.350855,15.2070532 11.6751108,15.3490532 12,15.4920532 C11.6877771,15.0545532 11.3255225,14.9110532 11,15.0525532" id="Fill-71" fill="#FFFFFE"></path>
                <path d="M12.363,10 C12.228,10.1244186 12.119,10.2244186 12,10.3341085 C12.051,10.3852713 12.104,10.4375969 12.1675,10.5 C12.371,10.3655039 12.493,10.2329457 12.363,10" id="Fill-72" fill="#FFFFFE"></path>
                <path d="M8.06564447,15 C8.04360326,15.0338475 8.02204121,15.0681234 8,15.1028278 C8.32103498,15.2352185 8.64254911,15.3676093 8.96358409,15.5 C8.97556301,15.479006 8.98802108,15.4571551 9,15.4353042 C8.68854816,15.29006 8.37709631,15.1443873 8.06564447,15" id="Fill-73" fill="#FFFFFE"></path>
                <path d="M6.3835,13.6295037 C6.335,13.4017675 6.1995,13.2080218 6.0985,13 C6.0655,13.0203943 6.033,13.0414684 6,13.0618627 C6,13.3344663 6,13.6057104 6,13.8769545 C6.0345,13.9184228 6.069,13.9592114 6.103,14 C6.203,13.8742352 6.4005,13.7097213 6.3835,13.6295037" id="Fill-74" fill="#FFFFFE"></path>
                <path d="M6.92045455,12.0452449 C6.46022727,11.9202449 6.1484375,12.0522449 6,12.4662449 C6.33380682,12.3727449 6.66690341,12.2802449 7,12.1867449 C6.97372159,12.1397449 6.94744318,12.0927449 6.92045455,12.0452449" id="Fill-75" fill="#FFFFFE"></path>
                <path d="M10,17 C9.68421053,17.1045 9.36956522,17.2105 9,17.3335 C9.30148741,17.4225 9.70022883,17.286 10,17" id="Fill-76" fill="#FFFFFE"></path>
                <path d="M5.02611353,13.4229885 C5.03211353,13.4544061 5.13911353,13.4747126 5.19911353,13.5 C5.23661353,13.3816092 5.27861353,13.2639847 5.30961353,13.1448276 C5.31911353,13.1091954 5.29811353,13.0689655 5.28511353,13 C4.92511353,13.0762452 4.99661353,13.2624521 5.02611353,13.4229885" id="Fill-77" fill="#FFFFFE"></path>
                <path d="M6.00262467,16 C6.00131234,16.0525 6.00065617,16.1055 6,16.158 C6.33267717,16.158 6.66535433,16.158 6.99868766,16.158 C6.99868766,16.1055 6.99934383,16.0525 7,16 C6.66732283,16 6.33464567,16 6.00262467,16" id="Fill-78" fill="#FFFFFE"></path>
                <path d="M7.01987857,13 C7.31246246,12.705319 7.65899798,12.3568087 8,12.0138194 C7.30554558,11.9165125 6.90367504,12.3423162 7.01987857,13" id="Fill-79" fill="#FFFFFE"></path>
                <path d="M12,17.0615 C11.9961517,17.041 11.9917537,17.02 11.9879054,17 C11.6586036,17.0605 11.3293018,17.1215 11,17.1815 C11.0093458,17.2195 11.0181418,17.2575 11.0280374,17.2955 C11.3518417,17.2175 11.675646,17.1395 12,17.0615" id="Fill-80" fill="#FFFFFE"></path>
                <path d="M6.5,15.216 C6.31697952,15.1365 6.15870307,15.068 6,15 C6.17363481,15.475 6.23805461,15.492 6.5,15.216" id="Fill-81" fill="#FFFFFE"></path>
                <g id="Group-85" transform="translate(0.000000, 6.000000)">
                    <mask id="mask-2" fill="white">
                        <use xlink:href="#path-1"></use>
                    </mask>
                    <g id="Clip-83"></g>
                    <path d="M9.47384131,9.38709677 C9.35492752,9.42691496 9.23203097,9.46018768 9.11994476,9.51418768 C9.10287579,9.52291496 9.13644476,9.62764223 9.14611717,9.68818768 C9.27356545,9.63527859 9.40044476,9.5823695 9.52789304,9.52891496 C9.51025511,9.48200587 9.49204821,9.43509677 9.47384131,9.38709677" id="Fill-82" fill="#FFFFFE" mask="url(#mask-2)"></path>
                    <path d="M31.2355185,18.4056774 C31.2347037,18.9785806 31.2330741,19.6563871 31.2253333,20.3384516 C31.2114815,21.5825806 30.7857407,22.736129 29.9611481,23.7650323 C29.1703704,24.7513548 28.2581852,25.6529032 27.2494444,26.4445161 C25.7351111,27.6340645 24.1641481,28.7477419 22.9647407,29.5850323 C22.7101111,29.7634839 22.4534444,29.9388387 22.1971852,30.1145806 C22.0631481,29.607871 21.7885556,29.0357419 21.3347037,28.3869677 C20.1894815,26.316 18.7126296,24.4912258 18.1532593,23.5529032 C17.1302593,21.8376774 17.2312963,21.6030968 17.2312963,21.6030968 C17.2312963,21.6030968 16.9933704,21.3452903 16.3415185,21.0689032 C15.6896667,20.7917419 15.7552593,20.5970323 15.6464815,20.6783226 C15.5381111,20.76 15.3543704,20.8451613 15.3714815,21.1889032 C15.3881852,21.5330323 15.435037,21.7223226 15.0211111,21.7029677 C14.6075926,21.6832258 14.8622222,22.2843871 14.883,22.7051613 C14.9037778,23.1251613 14.539963,21.8396129 14.3655926,21.3491613 C14.1912222,20.8590968 14.0225556,20.484 14.0225556,20.484 C12.7449259,18.9325161 13.4257037,17.5223226 13.4257037,17.5223226 C11.2631852,18.5783226 9.96477778,16.6064516 9.96477778,16.6064516 C9.96477778,16.6064516 9.84092593,17.0705806 9.96111111,18.7517419 C9.96111111,18.7517419 9.81688889,20.8018065 12.1774074,24.8094194 C13.8371852,27.627871 12.5065926,29.5563871 10.4483704,29.9005161 C9.25018519,29.0717419 8.13022222,28.2708387 7.07177778,27.4854194 C6.20888889,26.8447742 5.43562963,26.2602581 4.70881481,25.5940645 C4.13681481,25.0699355 3.5807037,24.4792258 3.05596296,23.8393548 C2.43996296,23.0883871 2.03337037,22.2665806 1.84840741,21.3967742 C1.76651852,21.0116129 1.72618519,20.5954839 1.72496296,20.1232258 C1.72374074,19.6943226 1.72414815,19.2654194 1.72455556,18.836129 L1.72455556,18.0460645 L1.71640741,10.0211613 C1.71437037,9.14903226 1.71274074,8.27690323 1.716,7.40477419 C1.71885185,6.69909677 1.94537037,6.11225806 2.40818519,5.61058065 C2.58174074,5.42245161 2.78951852,5.25870968 3.04292593,5.11045161 C4.35151852,4.34516129 5.7807037,3.71109677 7.41237037,3.17148387 C8.82811111,2.70348387 10.3208519,2.34541935 11.8498519,2.10735484 C13.1535556,1.90451613 14.5102222,1.78722581 15.881963,1.75858065 C16.0991111,1.75393548 16.3166667,1.7516129 16.5342222,1.7516129 C17.303,1.7516129 18.0664815,1.78141935 18.8038889,1.83909677 C22.2387407,2.10929032 25.4307778,2.92490323 28.292,4.26309677 C28.8191852,4.50967742 29.3691852,4.79845161 29.9261111,5.12206452 C30.7217778,5.58464516 31.1479259,6.25780645 31.2281852,7.18025806 C31.237963,7.29212903 31.2424444,7.41212903 31.2428519,7.55845161 C31.2440741,8.83896774 31.2440741,10.1190968 31.2432593,11.3996129 C31.2416296,13.7345806 31.2391852,16.0699355 31.2355185,18.4056774 Z M32.9246296,6.86245161 C32.7852963,5.73909677 32.2617778,4.80658065 31.3671111,4.09122581 C30.9597037,3.76529032 30.5038148,3.52722581 30.0634074,3.29767742 L30.0198148,3.27483871 C27.216037,1.8116129 24.046,0.838064516 20.5972963,0.380516129 C19.5751111,0.245419355 18.5170741,0.161806452 17.4529259,0.132387097 C15.3661852,0.0747096774 13.3157037,0.207870968 11.3544444,0.52916129 C9.47548148,0.836903226 7.65477778,1.31341935 5.94285185,1.944 C4.54748148,2.45845161 3.30814815,3.0356129 2.15314815,3.70954839 C1.72251852,3.96077419 1.37011111,4.24296774 1.07514815,4.5716129 C0.36462963,5.36477419 0.00325925926,6.30658065 0.00122222222,7.37109677 C-0.000814814815,8.41045161 -1.76182853e-19,9.44903226 0.00122222222,10.4883871 L0.00325925926,15.0212903 C0.00366666667,16.7489032 0.00407407407,18.476129 0.00488888889,20.2033548 C0.00488888889,20.727871 0.057037037,21.2419355 0.159703704,21.7292903 C0.37562963,22.7589677 0.825407407,23.7197419 1.496,24.5852903 C2.35155556,25.6889032 3.35948148,26.7069677 4.49248148,27.6112258 C5.60225926,28.4969032 6.73159259,29.3113548 7.88740741,30.1366452 C9.20985185,31.0815484 10.6133704,32.0442581 12.177,33.080129 C12.3811111,33.2152258 12.5856296,33.3503226 12.7901481,33.4846452 C13.5312222,33.9712258 14.2877778,34.4620645 15.1042222,34.9834839 L15.4293333,35.1917419 C15.5474815,35.2672258 15.6668519,35.3423226 15.7858148,35.4178065 L16.4674074,35.8494194 L16.7208148,35.7007742 C16.7562593,35.6806452 16.7900741,35.6609032 16.8218519,35.6403871 L16.9579259,35.5540645 C17.3518889,35.3028387 17.7462593,35.0512258 18.1402222,34.7992258 L18.2555185,34.7260645 C18.4286667,34.6149677 18.6026296,34.5042581 18.7753704,34.392 L19.1632222,34.1392258 C19.8851481,33.6704516 20.5854815,33.2098065 21.2454815,32.7696774 C23.5994815,31.1992258 25.6593333,29.7468387 27.5423704,28.3292903 C28.369,27.7068387 29.4368148,26.8645161 30.3575556,25.8685161 C30.8289259,25.3587097 31.363037,24.7815484 31.792037,24.1219355 C32.4858519,23.0554839 32.8684074,21.9135484 32.9291111,20.727871 C32.9535556,20.2447742 32.956,19.7593548 32.9564074,19.2630968 C32.9592593,15.3371613 32.9592593,11.4116129 32.9584444,7.48606452 C32.9584444,7.24683871 32.9478519,7.04864516 32.9246296,6.86245161 Z" id="Fill-84" fill="#FFFFFE" mask="url(#mask-2)"></path>
                </g>
                <path d="M186.43963,32 C186.384148,32 186.35742,31.9726754 186.35742,31.9184339 L186.35742,27.704323 L182.64339,27.704323 L182.64339,31.9184339 C182.64339,31.9726754 182.615852,32 182.561585,32 L181.081805,32 C181.027943,32 181,31.9726754 181,31.9184339 L181,22.0831974 C181,22.0277325 181.027943,22 181.081805,22 L182.561585,22 C182.615852,22 182.64339,22.0277325 182.64339,22.0831974 L182.64339,26.2145188 L186.35742,26.2145188 L186.35742,22.0831974 C186.35742,22.0277325 186.384148,22 186.43963,22 L187.9186,22 C187.972462,22 188,22.0277325 188,22.0831974 L188,31.9184339 C188,31.9726754 187.972462,32 187.9186,32 L186.43963,32" id="Fill-86" fill="#FFFFFE"></path>
                <path d="M190.089392,32 C190.029207,32 190,31.9726754 190,31.9184339 L190,22.0831974 C190,22.0277325 190.029207,22 190.089392,22 L196.911051,22 C196.969908,22 197,22.0277325 197,22.0831974 L197,23.4967374 C197,23.5513866 196.969908,23.5783034 196.911051,23.5783034 L191.794475,23.5783034 L191.794475,26.2145188 L196.143255,26.2145188 C196.202554,26.2145188 196.233089,26.2422512 196.233089,26.2973083 L196.233089,27.6280587 C196.233089,27.6790375 196.202554,27.704323 196.143255,27.704323 L191.794475,27.704323 L191.794475,30.4355628 L196.911051,30.4355628 C196.969908,30.4355628 197,30.4628874 197,30.5175367 L197,31.9184339 C197,31.9726754 196.969908,32 196.911051,32 L190.089392,32" id="Fill-87" fill="#FFFFFE"></path>
                <path d="M201.901609,28.303134 C201.892614,28.2709378 201.878907,28.2362962 201.862631,28.2000245 C201.84507,28.1629376 201.832648,28.1307413 201.823225,28.1038432 C201.740559,27.8800994 201.666459,27.6734727 201.598355,27.4831479 C201.531108,27.2936382 201.472,27.1277662 201.419316,26.9863471 C201.385478,26.8946489 201.352926,26.8053959 201.322086,26.7185883 C201.289962,26.6317806 201.260408,26.5494559 201.232138,26.4716143 C201.207296,26.3990708 201.183738,26.328565 201.159323,26.2625423 C201.134909,26.1957044 201.111779,26.1313119 201.087365,26.0673269 C201.044104,25.9344663 200.999558,25.8020133 200.954156,25.6687452 C200.908325,25.5366997 200.861638,25.3997636 200.813238,25.2575294 C200.78968,25.1935444 200.763552,25.1230387 200.737853,25.0447895 C200.711296,24.9673554 200.683455,24.8846232 200.654758,24.7982231 C200.640623,24.7525777 200.629058,24.7167135 200.622205,24.6914456 C200.615352,24.6665852 200.605929,24.6417247 200.596934,24.6160492 C200.587939,24.5911888 200.576803,24.5622529 200.564381,24.5308717 C200.553245,24.4982679 200.53654,24.4526226 200.518122,24.3931206 C200.46501,24.5447284 200.416181,24.6837022 200.370351,24.8120797 C200.32452,24.9396422 200.281688,25.0594612 200.243995,25.168684 C200.234572,25.1959897 200.226862,25.2212577 200.222151,25.2440804 C200.217439,25.266903 200.210157,25.2893182 200.200306,25.3125484 C200.177177,25.39039 200.151477,25.4633411 200.124493,25.5318091 C200.097937,25.6006847 200.073522,25.6687452 200.049536,25.7376207 C200.024265,25.8109793 200.001135,25.8818927 199.977149,25.9499531 C199.952735,26.0188287 199.928749,26.0848514 199.905191,26.149244 C199.85679,26.2861801 199.807533,26.430452 199.757419,26.5812447 C199.706877,26.7324449 199.650338,26.8893508 199.587803,27.0552227 C199.526124,27.2190569 199.460591,27.3963402 199.393772,27.5858499 C199.326097,27.7757672 199.240004,28.0149978 199.133779,28.303134 L201.901609,28.303134 Z M196.084542,32 C196.050704,32 196.026289,31.9881811 196.012583,31.965766 C195.998448,31.9425358 195.996307,31.9172678 196.00573,31.8895546 L199.78269,22.055019 C199.792113,22.0175246 199.816099,22 199.85422,22 L201.14476,22 C201.159323,22 201.174743,22.0052981 201.191448,22.017117 C201.20858,22.0285283 201.219289,22.0407548 201.224,22.055019 L204.993679,31.8895546 C205.003959,31.9172678 205.001817,31.9425358 204.986397,31.965766 C204.972263,31.9881811 204.951275,32 204.92172,32 L203.27096,32 C203.232839,32 203.208425,31.9812528 203.199002,31.9445735 L202.420737,29.7772344 L198.614651,29.7772344 C198.479729,30.1476953 198.347805,30.5100053 198.215025,30.8645719 C198.082673,31.2191384 197.949036,31.5794107 197.814542,31.9445735 C197.810259,31.9588377 197.799122,31.9710641 197.782846,31.9820679 C197.765713,31.9934792 197.749865,32 197.73573,32 L196.084542,32 Z" id="Fill-88" fill="#FFFFFE"></path>
                <path d="M206.089386,32 C206.03009,32 206,31.9726754 206,31.9184339 L206,22.0831974 C206,22.0277325 206.03009,22 206.089386,22 L207.70586,22 C207.765156,22 207.795246,22.0277325 207.795246,22.0831974 L207.795246,30.4355628 L212.910614,30.4355628 C212.970795,30.4355628 213,30.4628874 213,30.5175367 L213,31.9184339 C213,31.9726754 212.970795,32 212.910614,32 L206.089386,32" id="Fill-89" fill="#FFFFFE"></path>
                <path d="M215.76319,32 C215.709272,32 215.680894,31.9726754 215.680894,31.9184339 L215.680894,23.4893964 L213.08189,23.4893964 C213.027162,23.4893964 213,23.4628874 213,23.4082382 L213,22.0831974 C213,22.0277325 213.027162,22 213.08189,22 L219.91811,22 C219.972028,22 220,22.0277325 220,22.0831974 L220,23.4082382 C220,23.4628874 219.972028,23.4893964 219.91811,23.4893964 L217.325592,23.4893964 L217.325592,31.9184339 C217.325592,31.9726754 217.298431,32 217.243702,32 L215.76319,32" id="Fill-90" fill="#FFFFFE"></path>
                <path d="M226.439764,32 C226.385083,32 226.357945,31.9726754 226.357945,31.9184339 L226.357945,27.704323 L222.642055,27.704323 L222.642055,31.9184339 C222.642055,31.9726754 222.615322,32 222.560641,32 L221.081009,32 C221.027543,32 221,31.9726754 221,31.9184339 L221,22.0831974 C221,22.0277325 221.027543,22 221.081009,22 L222.560641,22 C222.615322,22 222.642055,22.0277325 222.642055,22.0831974 L222.642055,26.2145188 L226.357945,26.2145188 L226.357945,22.0831974 C226.357945,22.0277325 226.385083,22 226.439764,22 L227.918991,22 C227.972862,22 228,22.0277325 228,22.0831974 L228,31.9184339 C228,31.9726754 227.972862,32 227.918991,32 L226.439764,32" id="Fill-91" fill="#FFFFFE"></path>
                <path d="M186.246649,16.3027224 C186.237773,16.2717396 186.225423,16.2370389 186.210757,16.2006858 C186.195706,16.1639195 186.184128,16.1316974 186.175637,16.1040195 C186.102696,15.8805304 186.036701,15.6735655 185.976881,15.4835378 C185.917061,15.2939232 185.864188,15.1278556 185.817104,14.9865741 C185.787387,14.8948651 185.758056,14.8056347 185.729883,14.7192961 C185.702096,14.6321312 185.675466,14.5499236 185.65038,14.4722601 C185.628768,14.3991407 185.607542,14.3289131 185.585929,14.2624034 C185.564317,14.19672 185.54309,14.1314496 185.521478,14.0674185 C185.484042,13.9343991 185.443905,13.802206 185.403382,13.6695997 C185.363245,13.5374065 185.321564,13.3994299 185.278725,13.2585616 C185.257499,13.1941174 185.234729,13.1234767 185.211958,13.0458132 C185.188031,12.9677366 185.163717,12.885529 185.137859,12.7987772 C185.125123,12.7529227 185.115475,12.7169827 185.108914,12.6921965 C185.102739,12.6674103 185.094634,12.6422109 185.086144,12.6174247 C185.077653,12.5918123 185.068391,12.562895 185.057585,12.531086 C185.04755,12.4984509 185.032885,12.4530095 185.015904,12.3943487 C184.969206,12.5443054 184.924823,12.6843475 184.8843,12.8124096 C184.843777,12.9400587 184.806727,13.0594456 184.773151,13.168505 C184.763888,13.1961829 184.757713,13.2213822 184.753468,13.244516 C184.749223,13.2672367 184.742662,13.2899575 184.734171,13.3130913 C184.712559,13.3907547 184.690947,13.4638741 184.667019,13.5324493 C184.643091,13.6010245 184.620707,13.6695997 184.59948,13.7377618 C184.577482,13.8117074 184.556641,13.8823481 184.536187,13.9505102 C184.513803,14.0194985 184.492576,14.0860082 184.472122,14.1496261 C184.428897,14.2867766 184.3849,14.4305366 184.339746,14.5817326 C184.29575,14.7329285 184.244806,14.890321 184.189617,15.0547362 C184.133657,15.2199777 184.076539,15.3967861 184.016719,15.5864006 C183.956899,15.7760152 183.879712,16.0152022 183.785544,16.3027224 L186.246649,16.3027224 Z M181.075125,20 C181.045408,20 181.024567,19.9884331 181.011059,19.9657124 C180.998709,19.9421655 180.99678,19.9169662 181.004884,19.8897013 L184.362902,10.0553559 C184.371393,10.0185897 184.392619,10 184.426581,10 L185.573579,10 C185.585929,10 185.600981,10.0061966 185.615646,10.0173504 C185.630312,10.0289173 185.639574,10.0413104 185.643433,10.0553559 L188.994504,19.8897013 C189.003381,19.9169662 189.001451,19.9421655 188.989101,19.9657124 C188.976365,19.9884331 188.956683,20 188.931211,20 L187.463887,20 C187.429153,20 187.407927,19.9814103 187.399436,19.9446441 L186.707841,17.7775024 L183.324352,17.7775024 C183.204712,18.1480563 183.085844,18.5103482 182.96852,18.8647912 C182.851196,19.218821 182.732714,19.5790474 182.613074,19.9446441 C182.609215,19.9582765 182.599181,19.9710827 182.584129,19.9826496 C182.569078,19.9942165 182.55557,20 182.542834,20 L181.075125,20 Z" id="Fill-92" fill="#FFFFFE"></path>
                <path d="M190.086733,20 C190.029349,20 190,19.9731272 190,19.9177278 L190,10.0822722 C190,10.0272863 190.029349,10 190.086733,10 L191.58572,10 C191.614193,10 191.638723,10.0136431 191.657997,10.0413428 L196.239501,16.850091 L196.239501,10.0822722 C196.239501,10.0272863 196.26885,10 196.326671,10 L197.912391,10 C197.970651,10 198,10.0272863 198,10.0822722 L198,19.9177278 C198,19.9731272 197.970651,20 197.912391,20 L196.421727,20 C196.39194,20 196.368724,19.9867703 196.34945,19.959484 L191.752177,13.1503225 L191.752177,19.9177278 C191.752177,19.9731272 191.725894,20 191.672452,20 L190.086733,20" id="Fill-93" fill="#FFFFFE"></path>
                <path d="M200.05,20 C200.017,20 200,19.9731272 200,19.9177278 L200,10.0822722 C200,10.0272863 200.017,10 200.05,10 L200.951,10 C200.98375,10 201,10.0272863 201,10.0822722 L201,19.9177278 C201,19.9731272 200.98375,20 200.951,20 L200.05,20" id="Fill-94" fill="#FFFFFE"></path>
                <path d="M203.076834,20 C203.025097,20 203,19.9731272 203,19.9177278 L203,10.0822722 C203,10.0272863 203.025097,10 203.076834,10 L204.39112,10 C204.420463,10 204.444402,10.0157103 204.46139,10.0475442 L207.031274,16.2870018 C207.446332,15.2397883 207.862934,14.1996031 208.282239,13.1676865 C208.700772,12.1357698 209.119305,11.095998 209.538224,10.0475442 C209.550965,10.0157103 209.574517,10 209.608494,10 L210.92278,10 C210.973745,10 211,10.0272863 211,10.0822722 L211,19.9177278 C211,19.9731272 210.973745,20 210.92278,20 L209.532046,20 C209.480695,20 209.454826,19.9731272 209.454826,19.9177278 L209.454826,14.1111295 C209.155985,14.8573673 208.85444,15.598644 208.550965,16.3349595 C208.247876,17.0721019 207.947876,17.8104845 207.653282,18.5521746 C207.636293,18.5794609 207.613127,18.5935174 207.582625,18.5935174 L206.423166,18.5935174 C206.393436,18.5935174 206.369498,18.5794609 206.35251,18.5521746 L204.544788,14.0978998 L204.544788,19.9177278 C204.544788,19.9731272 204.519305,20 204.467568,20 L203.076834,20" id="Fill-95" fill="#FFFFFE"></path>
                <path d="M218.246057,16.3027224 C218.237567,16.2717396 218.225604,16.2370389 218.210168,16.2006858 C218.195504,16.1639195 218.184699,16.1316974 218.175437,16.1040195 C218.102502,15.8805304 218.036513,15.6735655 217.976698,15.4835378 C217.916498,15.2939232 217.864401,15.1278556 217.817321,14.9865741 C217.787221,14.8948651 217.758278,14.8056347 217.730108,14.7192961 C217.702323,14.6321312 217.675696,14.5499236 217.650226,14.4722601 C217.628616,14.3991407 217.607391,14.3289131 217.586167,14.2624034 C217.564942,14.19672 217.542946,14.1314496 217.521721,14.0674185 C217.483131,13.9343991 217.443769,13.802206 217.40325,13.6695997 C217.36273,13.5374065 217.321439,13.3994299 217.278604,13.2585616 C217.257379,13.1941174 217.234225,13.1234767 217.211457,13.0458132 C217.188303,12.9677366 217.163219,12.885529 217.13775,12.7987772 C217.124629,12.7529227 217.115754,12.7169827 217.109193,12.6921965 C217.102633,12.6674103 217.094915,12.6422109 217.086425,12.6174247 C217.077549,12.5918123 217.068288,12.562895 217.057868,12.531086 C217.047063,12.4984509 217.032785,12.4530095 217.015419,12.3943487 C216.968339,12.5443054 216.924733,12.6843475 216.884213,12.8124096 C216.843693,12.9400587 216.806647,13.0594456 216.772302,13.168505 C216.764198,13.1961829 216.757252,13.2213822 216.753393,13.244516 C216.749148,13.2672367 216.742587,13.2899575 216.733712,13.3130913 C216.712873,13.3907547 216.690877,13.4638741 216.666565,13.5324493 C216.643025,13.6010245 216.620643,13.6695997 216.599418,13.7377618 C216.577422,13.8117074 216.556583,13.8823481 216.535744,13.9505102 C216.513748,14.0194985 216.492909,14.0860082 216.471685,14.1496261 C216.42885,14.2867766 216.384857,14.4305366 216.339707,14.5817326 C216.295328,14.7329285 216.244775,14.890321 216.189591,15.0547362 C216.133636,15.2199777 216.076522,15.3967861 216.017094,15.5864006 C215.956507,15.7760152 215.879713,16.0152022 215.785553,16.3027224 L218.246057,16.3027224 Z M213.075757,20 C213.046043,20 213.024818,19.9884331 213.011697,19.9657124 C212.998577,19.9421655 212.996647,19.9169662 213.005137,19.8897013 L216.362475,10.0553559 C216.370965,10.0185897 216.392189,10 216.426535,10 L217.573432,10 C217.586167,10 217.600445,10.0061966 217.615495,10.0173504 C217.630159,10.0289173 217.639035,10.0413104 217.64328,10.0553559 L220.994829,19.8897013 C221.003705,19.9169662 221.001004,19.9421655 220.987883,19.9657124 C220.975148,19.9884331 220.956239,20 220.930384,20 L219.463575,20 C219.428843,20 219.407619,19.9814103 219.399129,19.9446441 L218.707595,17.7775024 L215.324402,17.7775024 C215.204386,18.1480563 215.086301,18.5103482 214.968215,18.8647912 C214.852059,19.218821 214.732815,19.5790474 214.613958,19.9446441 C214.609327,19.9582765 214.59968,19.9710827 214.583858,19.9826496 C214.569579,19.9942165 214.555687,20 214.542566,20 L213.075757,20 Z" id="Fill-96" fill="#FFFFFE"></path>
                <path d="M222.089261,20 C222.029604,20 222,19.9731272 222,19.9177278 L222,10.0822722 C222,10.0272863 222.029604,10 222.089261,10 L223.70537,10 C223.764578,10 223.795079,10.0272863 223.795079,10.0822722 L223.795079,18.4351745 L228.910291,18.4351745 C228.969947,18.4351745 229,18.4624607 229,18.5174467 L229,19.9177278 C229,19.9731272 228.969947,20 228.910291,20 L222.089261,20" id="Fill-97" fill="#FFFFFE"></path>
                <polygon id="Fill-98" fill="#FFFFFE" points="176 43 177 43 177 0 176 0"></polygon>
                <path d="M172.999581,15.25 C172.080821,15.25 171.332915,15.8106156 171.332915,16.5 C171.332915,17.1893844 172.080821,17.75 172.999581,17.75 C173.91876,17.75 174.666248,17.1893844 174.666248,16.5 C174.666248,15.8106156 173.91876,15.25 172.999581,15.25 Z M172.999581,18 C171.896985,18 171,17.3269472 171,16.5 C171,15.6727387 171.896985,15 172.999581,15 C174.102596,15 175,15.6727387 175,16.5 C175,17.3269472 174.102596,18 172.999581,18 Z" id="Fill-99" fill="#FFFFFE"></path>
                <path d="M171.317513,16.9058498 L172.028808,16.9058498 C172.127047,16.9058498 172.211192,16.8999654 172.282487,16.8878505 C172.352953,16.8757355 172.410984,16.8560055 172.456166,16.8286604 C172.501762,16.8016615 172.534922,16.7656629 172.556062,16.7210107 C172.577202,16.6763586 172.587979,16.6223607 172.587979,16.5593631 C172.587979,16.4437522 172.545699,16.3586016 172.46114,16.3035652 C172.376166,16.2485289 172.248083,16.2215299 172.076062,16.2215299 L171.317513,16.2215299 L171.317513,16.9058498 Z M173,18 L172.655544,18 L172.429637,17.4634822 C172.409326,17.4170993 172.381969,17.3741779 172.348394,17.3354102 C172.314404,17.2966424 172.275026,17.2630668 172.230259,17.2346833 C172.185492,17.2062998 172.135751,17.1844929 172.080622,17.1689166 C172.025907,17.1533403 171.967047,17.145379 171.905699,17.145379 L171.317513,17.145379 L171.317513,18 L171,18 L171,16 L172.061554,16 C172.125803,16 172.186736,16.0010384 172.244767,16.0038075 C172.302798,16.0062305 172.357927,16.0117688 172.410984,16.0200762 C172.463627,16.0287297 172.513782,16.041883 172.561036,16.0588439 C172.607876,16.0764971 172.652642,16.0996885 172.694922,16.1298027 C172.767461,16.1834545 172.822591,16.2481828 172.859896,16.3243337 C172.897617,16.3997923 172.916269,16.4780201 172.916269,16.5593631 C172.916269,16.6285912 172.904249,16.6929733 172.879378,16.7514711 C172.854093,16.8099688 172.818446,16.8618899 172.772021,16.9075805 C172.725181,16.953271 172.669223,16.9913465 172.602487,17.0224991 C172.535751,17.0539979 172.46114,17.0761509 172.377409,17.0893043 L172.377409,17.0938041 C172.54487,17.1374178 172.672539,17.2582208 172.762073,17.4558671 L173,18 Z" id="Fill-100" fill="#FFFFFE"></path>
            </g>
        </g>
    </g>
</svg>