<?xml version="1.0" encoding="UTF-8"?>
<svg width="55px" height="55px" viewBox="0 0 55 55" version="1.1" xmlns="http://www.w3.org/2000/svg" xmlns:xlink="http://www.w3.org/1999/xlink">
    <!-- Generator: Sketch 49.3 (51167) - http://www.bohemiancoding.com/sketch -->
    <title>ubicacion-icon copy</title>
    <desc>Created with Sketch.</desc>
    <defs>
        <polygon id="path-1" points="0.00635080645 54.1935484 54.1935484 54.1935484 54.1935484 0 0.00635080645 0"></polygon>
    </defs>
    <g id="peacock-home" stroke="none" stroke-width="1" fill="none" fill-rule="evenodd">
        <g id="peacoock-home-992" transform="translate(-344.000000, -2953.000000)">
            <g id="ubicacion-icon-copy" transform="translate(344.000000, 2953.000000)">
                <g id="Group-3">
                    <mask id="mask-2" fill="white">
                        <use xlink:href="#path-1"></use>
                    </mask>
                    <g id="Clip-2"></g>
                    <path d="M34.3846421,50.947122 C35.836754,49.6460534 37.1714819,47.9444607 38.3420413,45.8720867 C41.0468498,41.0834728 42.5943296,34.8139567 42.7380696,28.1223236 L52.011623,28.1223236 C51.5738407,38.8892692 44.2781401,47.9178931 34.3846421,50.947122 Z M2.1819254,28.1223236 L11.4554788,28.1223236 C11.5992187,34.8138508 13.1466986,41.0833669 15.8515071,45.8720867 C17.0220665,47.9444607 18.3567944,49.6460534 19.8089062,50.947122 C9.91540827,47.9178931 2.61970766,38.8892692 2.1819254,28.1223236 Z M19.8089063,3.24642641 C18.3567944,4.54749496 17.0220665,6.2490877 15.8515071,8.32146169 C13.1611996,13.0843548 11.6157308,19.3121673 11.4577016,25.9632611 L2.18594758,25.9632611 C2.66797379,15.2439466 9.94843246,6.26549395 19.8089063,3.24642641 Z M26.0172429,28.1223236 L26.0172429,33.7801512 C23.4998891,34.2614365 21.5910484,36.4782913 21.5910484,39.1337752 C21.5910484,42.3597732 24.8738861,45.5277671 26.0172429,46.5332056 L26.0172429,51.7371623 C22.9283165,51.2785282 20.0192238,48.8605645 17.7314516,44.8102319 C15.204995,40.3373589 13.7564819,34.4446573 13.6148589,28.1223236 L26.0172429,28.1223236 Z M27.0419456,44.5454032 C25.7373841,43.3093246 23.7501109,41.0223992 23.7501109,39.1337752 C23.7501109,37.3181855 25.2272026,35.8411996 27.0427923,35.8411996 C28.8583821,35.8411996 30.3354738,37.3181855 30.3354738,39.1337752 C30.3354738,41.015625 28.3462954,43.3067843 27.0419456,44.5454032 Z M14.9243952,16.4631956 C16.1832308,18.9512298 18.5545161,20.9480292 18.9102671,21.2391079 C19.1091532,21.4017944 19.3515423,21.4830847 19.5939315,21.4830847 C19.8362147,21.4830847 20.0786038,21.4017944 20.2774899,21.2391079 C20.7655494,20.8398538 25.0456754,17.2320665 25.0456754,13.5483871 C25.0456754,10.5422329 22.5999798,8.09664315 19.5939315,8.09664315 C19.1957359,8.09664315 18.8078075,8.1406754 18.4336391,8.22217742 C20.6010635,4.87106855 23.236119,2.86929435 26.0172429,2.45649194 L26.0172429,25.9632611 L13.6170817,25.9632611 C13.699748,22.6263357 14.1467389,19.4112399 14.9243952,16.4631956 Z M19.5939315,10.2557056 C21.4095212,10.2557056 22.8865071,11.7327974 22.8865071,13.5483871 C22.8865071,15.4302369 20.8973286,17.7213962 19.5929788,18.9600151 C18.2885232,17.7238306 16.30125,15.4369052 16.30125,13.5483871 C16.30125,11.7327974 17.7783417,10.2557056 19.5939315,10.2557056 Z M35.5173085,28.1223236 L40.5787954,28.1223236 C40.4371724,34.4445514 38.9886593,40.3373589 36.4622026,44.8102319 C34.1743246,48.8605645 31.2653377,51.2785282 28.1764113,51.7371623 L28.1764113,46.4374143 C29.4046573,45.3388306 32.4946421,42.2639819 32.4946421,39.133881 C32.4946421,36.516502 30.6402067,34.3247329 28.1764113,33.8014264 L28.1764113,2.45649194 C31.2653377,2.91512601 34.1744304,5.33308972 36.4622026,9.38342238 C38.97437,13.8307863 40.4209778,19.681996 40.5765726,25.9633669 L35.5173085,25.9633669 C34.9210736,25.9633669 34.4377772,26.4466633 34.4377772,27.0428982 C34.4377772,27.6391331 34.9210736,28.1223236 35.5173085,28.1223236 Z M45.402127,10.1638306 C43.9958468,11.1509577 43.0741331,12.7833266 43.0741331,14.6279183 C43.0741331,18.3115978 47.3542591,21.9194909 47.8423185,22.3186391 C48.0412046,22.4813256 48.2834879,22.5626159 48.525877,22.5626159 C48.7682661,22.5626159 49.0106552,22.4813256 49.2094355,22.3186391 C49.4076865,22.1564819 50.2311744,21.4653024 51.1394456,20.4546774 C51.63375,22.2472984 51.9249345,24.0908317 52.0085534,25.9632611 L42.7359526,25.9632611 C42.5779234,19.3122732 41.0323488,13.0843548 38.3421472,8.32146169 C37.1709526,6.24792339 35.8352722,4.54558972 34.3822077,3.24430948 C38.5670716,4.52060988 42.373004,6.88935484 45.402127,10.1638306 Z M51.8185585,14.6279183 C51.8185585,16.5097681 49.82938,18.8009274 48.5250302,20.0395464 C47.2204687,18.8034677 45.2333014,16.5165423 45.2333014,14.6279183 C45.2333014,12.8123286 46.7102873,11.3353427 48.525877,11.3353427 C50.3414667,11.3353427 51.8185585,12.8123286 51.8185585,14.6279183 Z M53.977621,14.6279183 C53.977621,11.62187 51.5320313,9.1761744 48.525877,9.1761744 C48.1767944,9.1761744 47.8355444,9.2105746 47.5044556,9.27355343 C42.3494002,3.37428931 34.9427722,0 27.0967742,0 C19.8589718,0 13.0544002,2.8184879 7.93639113,7.93639113 C2.8184879,13.0544002 0,19.8589718 0,27.0967742 C0,34.3345766 2.8184879,41.1391482 7.93639113,46.2571573 C13.0544002,51.3750605 19.8589718,54.1935484 27.0967742,54.1935484 C34.3345766,54.1935484 41.1391482,51.3750605 46.2571573,46.2571573 C51.3750605,41.1391482 54.1935484,34.3345766 54.1935484,27.0967742 C54.1935484,24.0969708 53.7055948,21.1529486 52.7457762,18.3409173 C53.4507157,17.2026411 53.977621,15.9200958 53.977621,14.6279183 Z" id="Fill-1" fill="#572F0A" mask="url(#mask-2)"></path>
                </g>
                <path d="M31.6309325,25.9632611 L30.9831502,25.9632611 C30.3869153,25.9632611 29.903619,26.4465575 29.903619,27.0427923 C29.903619,27.6390272 30.3869153,28.1223236 30.9831502,28.1223236 L31.6309325,28.1223236 C32.2271673,28.1223236 32.7104637,27.6390272 32.7104637,27.0427923 C32.7104637,26.4465575 32.2271673,25.9632611 31.6309325,25.9632611" id="Fill-4" fill="#572F0A"></path>
                <path d="M48.525877,15.8693952 C49.1221119,15.8693952 49.6054083,15.3860988 49.6054083,14.7898639 L49.6054083,14.3580091 C49.6054083,13.7617742 49.1221119,13.2784778 48.525877,13.2784778 C47.9296421,13.2784778 47.4463458,13.7617742 47.4463458,14.3580091 L47.4463458,14.7898639 C47.4463458,15.3860988 47.9296421,15.8693952 48.525877,15.8693952" id="Fill-5" fill="#572F0A"></path>
                <path d="M20.6734627,13.7103327 L20.6734627,13.2784778 C20.6734627,12.6822429 20.1901663,12.1989466 19.5939315,12.1989466 C18.9976966,12.1989466 18.5142944,12.6822429 18.5142944,13.2784778 L18.5142944,13.7103327 C18.5142944,14.3065675 18.9976966,14.7898639 19.5939315,14.7898639 C20.1901663,14.7898639 20.6734627,14.3065675 20.6734627,13.7103327" id="Fill-6" fill="#572F0A"></path>
                <path d="M27.0427923,37.7843347 C26.4465575,37.7843347 25.9632611,38.267631 25.9632611,38.8638659 L25.9632611,39.2957208 C25.9632611,39.8919556 26.4465575,40.375252 27.0427923,40.375252 C27.6390272,40.375252 28.1223236,39.8919556 28.1223236,39.2957208 L28.1223236,38.8638659 C28.1223236,38.267631 27.6390272,37.7843347 27.0427923,37.7843347" id="Fill-7" fill="#572F0A"></path>
            </g>
        </g>
    </g>
</svg>